<?xml version="1.0" standalone="no"?><!DOCTYPE svg PUBLIC "-//W3C//DTD SVG 1.1//EN" "http://www.w3.org/Graphics/SVG/1.1/DTD/svg11.dtd"><svg t="1542930003167" class="icon" style="" viewBox="0 0 1024 1024" version="1.1" xmlns="http://www.w3.org/2000/svg" p-id="5558" xmlns:xlink="http://www.w3.org/1999/xlink" width="200" height="200"><defs><style type="text/css"></style></defs><path d="M102.4 17.066h819.2c47.122 0 85.334 38.212 85.334 85.334v614.4c0 47.122-38.212 85.334-85.334 85.334H102.4c-47.122 0-85.334-38.212-85.334-85.334V102.4c0-47.122 38.212-85.334 85.334-85.334z" fill="#51ABD8" p-id="5559"></path><path d="M807.492 17.066c1.006 332.306-249.958 611.31-580.506 645.376v3.158h779.946V102.4c0-47.122-38.212-85.334-85.334-85.334h-114.106z" fill="#1588C9" p-id="5560"></path><path d="M136.534 938.666h750.934v68.266H136.534z" fill="#DEDAD8" p-id="5561"></path><path d="M802.134 938.666l-51.2-136.532H273.066l-51.2 136.532z" fill="#F5F1EF" p-id="5562"></path><path d="M770.134 853.334l-19.2-51.2H273.066l-19.2 51.2z" fill="#DEDAD8" p-id="5563"></path><path d="M17.066 665.6h989.866v51.2c0 47.122-38.212 85.334-85.334 85.334H102.4c-47.122 0-85.334-38.212-85.334-85.334v-51.2z" fill="#F5F1EF" p-id="5564"></path><path d="M221.866 460.8m-51.2 0a51.2 51.2 0 1 0 102.4 0 51.2 51.2 0 1 0-102.4 0Z" fill="#FFC117" p-id="5565"></path><path d="M529.066 477.866m-51.2 0a51.2 51.2 0 1 0 102.4 0 51.2 51.2 0 1 0-102.4 0Z" fill="#FFC117" p-id="5566"></path><path d="M802.134 204.8m-51.2 0a51.2 51.2 0 1 0 102.4 0 51.2 51.2 0 1 0-102.4 0Z" fill="#FFC117" p-id="5567"></path><path d="M366.934 315.734m-51.2 0a51.2 51.2 0 1 0 102.4 0 51.2 51.2 0 1 0-102.4 0Z" fill="#FFC117" p-id="5568"></path><path d="M921.6 0H102.4C45.876 0.052 0.052 45.876 0 102.4v614.4c0.052 56.524 45.876 102.348 102.4 102.4h146.04l-38.4 102.4H136.534a17.072 17.072 0 0 0-17.066 17.066v68.266a17.072 17.072 0 0 0 17.066 17.066h750.934a17.072 17.072 0 0 0 17.066-17.066v-68.266a17.072 17.072 0 0 0-17.066-17.066H813.96l-38.4-102.4h146.04c56.524-0.052 102.348-45.876 102.4-102.4V102.4C1023.948 45.876 978.124 0.052 921.6 0zM102.4 34.134h819.2c37.7 0 68.266 30.566 68.266 68.266v546.134H34.134V102.4c0-37.7 30.566-68.266 68.266-68.266z m768 955.732H153.6v-34.134h716.8v34.134zM777.506 921.6H246.494l38.4-102.4h454.212l38.4 102.4z m144.094-136.534H102.4c-37.7 0-68.266-30.566-68.266-68.266v-34.134h955.734V716.8c-0.002 37.7-30.568 68.266-68.268 68.266z" fill="" p-id="5569"></path><path d="M494.934 716.8h34.134v34.134h-34.134zM243.798 414.72a50.36 50.36 0 0 0-21.93-5.12c-28.28 0-51.2 22.92-51.2 51.2s22.92 51.2 51.2 51.2 51.2-22.92 51.2-51.2a50.36 50.36 0 0 0-5.12-21.93l77.056-77.056a49.418 49.418 0 0 0 43.862 0l94.122 94.122a50.36 50.36 0 0 0-5.12 21.93c0 28.28 22.92 51.2 51.2 51.2s51.2-22.92 51.2-51.2a50.36 50.36 0 0 0-5.12-21.93L780.202 250.88a50.36 50.36 0 0 0 21.93 5.12c28.28 0 51.2-22.92 51.2-51.2s-22.92-51.2-51.2-51.2-51.2 22.92-51.2 51.2a50.36 50.36 0 0 0 5.12 21.93L550.998 431.786a49.418 49.418 0 0 0-43.862 0l-94.122-94.122a50.36 50.36 0 0 0 5.12-21.93c0-28.28-22.92-51.2-51.2-51.2s-51.2 22.92-51.2 51.2a50.36 50.36 0 0 0 5.12 21.93l-77.056 77.056z m-21.932 63.146c-9.42 0-17.066-7.646-17.066-17.066s7.646-17.066 17.066-17.066c9.42 0 17.066 7.646 17.066 17.066s-7.644 17.066-17.066 17.066zM802.134 187.734a17.072 17.072 0 0 1 17.066 17.066c0 9.42-7.646 17.066-17.066 17.066s-17.066-7.646-17.066-17.066c-0.002-9.42 7.644-17.066 17.066-17.066z m-256 290.132a17.072 17.072 0 0 1-17.066 17.066c-9.42 0-17.066-7.646-17.066-17.066s7.646-17.066 17.066-17.066a17.072 17.072 0 0 1 17.066 17.066z m-179.2-179.2a17.072 17.072 0 0 1 17.066 17.066c0 9.42-7.646 17.066-17.066 17.066s-17.066-7.646-17.066-17.066c-0.002-9.42 7.644-17.066 17.066-17.066z" fill="" p-id="5570"></path><path d="M307.2 477.866h34.134V512H307.2zM443.734 273.066h34.134V307.2h-34.134zM614.4 477.866h34.134V512H614.4zM887.466 153.6H921.6v34.134h-34.134zM102.4 102.4h102.4v34.134H102.4zM102.4 170.666h187.734V204.8H102.4zM733.866 477.866h102.4V512h-102.4zM733.866 546.134H921.6v34.134h-187.734z" fill="" p-id="5571"></path></svg>