<?xml version="1.0" standalone="no"?><!DOCTYPE svg PUBLIC "-//W3C//DTD SVG 1.1//EN" "http://www.w3.org/Graphics/SVG/1.1/DTD/svg11.dtd"><svg t="1542930654732" class="icon" style="" viewBox="0 0 1024 1024" version="1.1" xmlns="http://www.w3.org/2000/svg" p-id="5829" xmlns:xlink="http://www.w3.org/1999/xlink" width="200" height="200"><defs><style type="text/css"></style></defs><path d="M605.84955 435.20255m-418.12245 0a418.12245 418.12245 0 1 0 836.2449 0 418.12245 418.12245 0 1 0-836.2449 0Z" fill="#51ABD8" p-id="5830"></path><path d="M981.425751 251.365473c-49.390289 288.111688-313.283836 508.094977-631.569701 508.094977-2.730016 0-5.428032-0.170001-8.158048-0.188001 178.991049 145.898855 442.372592 119.070698 588.271447-59.920351 103.098604-126.492741 123.202722-301.421766 51.456302-447.986625z" fill="#1588C9" p-id="5831"></path><path d="M358.3901 435.20255m-68.2644 0a68.2644 68.2644 0 1 0 136.5288 0 68.2644 68.2644 0 1 0-136.5288 0Z" fill="#FFC117" p-id="5832"></path><path d="M750.9124 520.53305m-68.2644 0a68.2644 68.2644 0 1 0 136.5288 0 68.2644 68.2644 0 1 0-136.5288 0Z" fill="#FFC117" p-id="5833"></path><path d="M802.1107 247.47345m-68.2644 0a68.2644 68.2644 0 1 0 136.5288 0 68.2644 68.2644 0 1 0-136.5288 0Z" fill="#FFC117" p-id="5834"></path><path d="M785.0446 785.0586c0-23.568138-19.096112-42.66625-42.66625-42.66625 23.568138 0 42.66625-19.096112 42.66625-42.66625s-19.096112-42.66625-42.66625-42.66625h-145.06285l4.506026-11.264066a246.671445 246.671445 0 0 0 10.24006-151.462888c-8.686051-34.746204-39.900234-59.116346-75.706443-59.134346h-24.370143c20.940123 83.812491-6.77604 172.30101-71.780421 229.199343l-30.616179 26.794157h-68.2644v273.0596h68.2644a323.325894 323.325894 0 0 0 144.584847 34.1322h188.205103c23.568138 0 42.66625-19.096112 42.66625-42.66625s-19.096112-42.66625-42.66625-42.66625c23.568138 0 42.66625-19.096112 42.66625-42.66625 0-23.568138-19.096112-42.66625-42.66625-42.66625 23.570138 0.006 42.66625-19.090112 42.66625-42.66025z" fill="#F2C09A" p-id="5835"></path><path d="M170.661 657.06385h170.661v341.324H170.661z" fill="#F5F1EF" p-id="5836"></path><path d="M0 691.19605h170.661v273.0596H0z" fill="#DEDAD8" p-id="5837"></path><path d="M597.3175 8.54805C361.598119 8.61605 170.593 199.75717 170.661 435.476552a426.784501 426.784501 0 0 0 52.274306 204.521198H170.661a17.0721 17.0721 0 0 0-17.0661 17.0661v17.0661H0v34.1322h153.5949v238.9274H0v34.1322h153.5949v17.0661a17.0721 17.0721 0 0 0 17.0661 17.0661h170.661a17.0721 17.0721 0 0 0 17.0661-17.0661v-17.0661h47.222277a342.174005 342.174005 0 0 0 148.56087 34.1322h188.205103c32.938193 0.052 59.68035-26.624156 59.73235-59.560349a59.640349 59.640349 0 0 0-18.056106-42.836251c23.568138-22.852134 24.132141-60.482354 1.280008-84.050493l-1.280008-1.280007a59.554349 59.554349 0 0 0 10.564062-14.318084c208.873224-109.070639 289.783698-366.804149 180.731059-575.677373C901.829284 96.916568 756.168431 8.61605 597.3175 8.54805zM324.2579 981.32175H187.7291V674.12995h136.5288v307.1918z m418.12245-136.5308c14.130083 0 25.60015 11.468067 25.60015 25.60015 0 14.130083-11.468067 25.60015-25.60015 25.60015h-42.66625v34.1322h42.66625c14.130083 0 25.60015 11.468067 25.60015 25.60015 0 14.130083-11.468067 25.60015-25.60015 25.60015h-188.205103a307.679803 307.679803 0 0 1-136.956802-32.42619 17.0721 17.0721 0 0 0-7.628045-1.70601h-51.1983V708.26215h51.1983a17.1201 17.1201 0 0 0 11.246066-4.216025l30.600179-26.794157c64.202376-55.874327 95.006557-140.948826 81.456477-224.983318h3.41402c28.040164-0.086001 52.530308 18.978111 59.304348 46.198271a228.511339 228.511339 0 0 1-9.558056 141.000826l-0.290002 0.530003h-39.644232v34.1322h196.26115c14.130083 0 25.60015 11.468067 25.60015 25.60015 0 14.130083-11.468067 25.60015-25.60015 25.60015h-42.66625v34.1322h42.66625c14.130083 0 25.60015 11.468067 25.60015 25.60015s-11.468067 25.60015-25.60015 25.60015h-42.66625v34.1322h42.66625z m58.02434-73.622431a59.70635 59.70635 0 0 0-16.350096-28.774169c23.602138-22.972135 24.132141-60.738356 1.160007-84.340494a59.71435 59.71435 0 0 0-42.836251-18.056106h-120.384706a261.397532 261.397532 0 0 0 12.492074-117.278687l49.57629 11.674068c7.458044 36.948216 43.468255 60.858357 80.432471 53.400313 36.948216-7.458044 60.858357-43.468255 53.400313-80.432471a68.2744 68.2744 0 0 0-45.208265-51.2163l42.51225-141.750831c37.358219-6.928041 62.018363-42.836251 55.072322-80.19447s-42.836251-62.018363-80.19447-55.072322c-37.358219 6.928041-62.018363 42.836251-55.072322 80.194469a68.800403 68.800403 0 0 0 45.328265 52.512308l-42.512249 141.750831a68.2604 68.2604 0 0 0-51.624302 46.214271l-58.998346-13.874082c-11.94607-40.208236-48.894286-67.786397-90.842532-67.804397h-24.370143a17.0721 17.0721 0 0 0-17.0661 17.0661c0 1.382008 0.170001 2.782016 0.512003 4.130024 1.366008 5.444032 2.440014 10.922064 3.41402 16.384096l-72.514425-17.0661c0-1.178007 0.358002-2.286013 0.358002-3.41402 0.290002-37.990223-30.258177-69.032404-68.2644-69.322406s-69.032404 30.258177-69.322406 68.2644 30.258177 69.032404 68.2644 69.322406a68.760403 68.760403 0 0 0 58.742344-32.136188l85.638502 20.154118a212.097243 212.097243 0 0 1-72.786427 160.062938l-25.786151 22.544132h-44.782262v-17.0661a17.0721 17.0721 0 0 0-17.0661-17.0661h-78.674461c-113.046662-184.913083-54.800321-426.450499 130.112762-539.497161s426.450499-54.800321 539.497161 130.112762 54.800321 426.450499-130.112762 539.497161c-0.584003 0.378002-1.164007 0.718004-1.74401 1.078007z m-49.49229-284.767669c18.85811 0 34.1322 15.274089 34.1322 34.1322 0 18.85811-15.274089 34.1322-34.1322 34.1322s-34.1322-15.274089-34.1322-34.1322c0-18.85811 15.274089-34.1322 34.1322-34.1322z m51.1983-204.7932c-18.85811 0-34.1322-15.274089-34.1322-34.1322 0-18.85811 15.274089-34.1322 34.1322-34.1322s34.1322 15.274089 34.1322 34.1322c0 18.85611-15.274089 34.1322-34.1322 34.1322zM392.5223 435.20255c0 18.85811-15.274089 34.1322-34.1322 34.1322s-34.1322-15.274089-34.1322-34.1322 15.274089-34.1322 34.1322-34.1322 34.1322 15.274089 34.1322 34.1322z" fill="" p-id="5838"></path><path d="M238.9274 913.03935h34.1322v34.1322h-34.1322z" fill="" p-id="5839"></path></svg>