<?xml version="1.0" standalone="no"?><!DOCTYPE svg PUBLIC "-//W3C//DTD SVG 1.1//EN" "http://www.w3.org/Graphics/SVG/1.1/DTD/svg11.dtd"><svg t="1542930672472" class="icon" style="" viewBox="0 0 1024 1024" version="1.1" xmlns="http://www.w3.org/2000/svg" p-id="6096" xmlns:xlink="http://www.w3.org/1999/xlink" width="200" height="200"><defs><style type="text/css"></style></defs><path d="M341.873935 330.34529c-86.076336-23.996094-175.308685 26.332103-199.304778 112.41044a161.828632 161.828632 0 0 0 24.150094 137.430536h-13.012051c-75.350294 0-136.440533 61.092239-136.440533 136.440533s61.092239 136.440533 136.440533 136.440533h716.312799c75.350294 0 136.440533-61.092239 136.440532-136.440533s-61.092239-136.440533-136.440532-136.440533h-30.016118c47.072184-58.84023 37.522147-144.712565-21.336083-191.766749a136.440533 136.440533 0 0 0-138.760542-18.948074l-338.033321-39.126153z" fill="#F5F1EF" p-id="6097"></path><path d="M870.019999 580.186266h-30.016118c47.072184-58.84023 37.522147-144.712565-21.336083-191.766749a136.440533 136.440533 0 0 0-138.760542-18.948074l-86.878339-10.046039a568.670221 568.670221 0 0 1 4.110016 67.264263c0 181.67071-86.196337 340.38533-214.552839 426.377665h487.433905c75.350294 0 136.440533-61.092239 136.440532-136.440533s-61.074239-136.440533-136.440532-136.440533z" fill="#DEDAD8" p-id="6098"></path><path d="M511.828599 341.449334m-170.550666 0a170.550666 170.550666 0 1 0 341.101333 0 170.550666 170.550666 0 1 0-341.101333 0Z" fill="#FFC117" p-id="6099"></path><path d="M615.437004 206.132805c57.220224 74.684292 43.046168 181.602709-31.638124 238.822933-61.108239 46.816183-146.00857 46.834183-207.134809 0.034 57.032223 74.854292 163.95064 89.300349 238.804933 32.268126s89.300349-163.95064 32.268126-238.804933a170.564666 170.564666 0 0 0-32.216126-32.234125l-0.084-0.086001z" fill="#E97424" p-id="6100"></path><path d="M273.057667 631.384466h68.220266v68.220267h-68.220266zM682.379266 631.384466h68.220266v68.220267h-68.220266z" fill="#1588C9" p-id="6101"></path><path d="M494.806533 424.199657v19.546076h34.110133v-19.546076c25.5821-7.964031 39.858156-35.150137 31.910125-60.716237a48.56819 48.56819 0 0 0-24.712097-29.028114l-33.25813-16.628064a14.572057 14.572057 0 0 1-6.464025-19.562077 14.534057 14.534057 0 0 1 12.978051-8.016031h4.980019a14.600057 14.600057 0 0 1 14.564057 14.564057v2.490009h34.110133v-2.490009a48.56419 48.56419 0 0 0-34.110133-46.202181v-19.528076h-34.110133v19.528076c-25.5661 7.948031-39.874156 35.116137-31.928125 60.682237a48.460189 48.460189 0 0 0 24.730097 29.044114l33.24013 16.628065a14.570057 14.570057 0 0 1 6.566025 19.528076 14.524057 14.524057 0 0 1-13.064051 8.084032h-4.980019a14.600057 14.600057 0 0 1-14.564057-14.564057v-2.49001h-34.110133v2.49001a48.58819 48.58819 0 0 0 34.112133 46.18618z" fill="" p-id="6102"></path><path d="M153.7052 870.121399h716.312799c84.780331 0.272001 153.7166-68.220266 153.990601-153.000598s-68.220266-153.7166-153.000598-153.990601c37.846148-75.674296 7.180028-167.684655-68.476267-205.530803a153.180598 153.180598 0 0 0-103.268404-12.194048c0-1.348005 0.204001-2.64401 0.204001-3.990015 0.018-103.558405-83.928328-187.520733-187.468732-187.536733-91.414357-0.018-169.526662 65.900257-184.876722 156.03661a176.70669 176.70669 0 0 0-28.448111-2.610011c-98.850386 0.12-178.958699 80.226313-179.0787 179.0787a177.252692 177.252692 0 0 0 17.77207 77.600303c-84.302329 8.920035-145.412568 84.49033-136.492534 168.794659 8.290032 78.162305 74.24229 137.428537 152.830597 137.342537z m358.157399-682.202665c84.780331 0 153.4966 68.714268 153.4966 153.4966s-68.714268 153.4966-153.4966 153.496599-153.4966-68.714268-153.496599-153.496599c0.104-84.730331 68.766269-153.410599 153.496599-153.4966zM153.7052 597.240333h13.030051a17.062067 17.062067 0 0 0 13.884055-26.964105c-46.440181-65.098254-31.314122-155.508607 33.786132-201.948789a144.656565 144.656565 0 0 1 84.268329-26.912105c8.630034 0.12 17.242067 1.006004 25.7181 2.69401 1.382005 103.524404 86.434338 186.326728 189.958742 184.944723 86.99834-1.160005 161.766632-62.030242 180.544705-146.998575 62.284243-21.422084 130.146508 11.716046 151.568592 74.002289 13.302052 38.714151 5.850023 81.540319-19.784077 113.450444a17.050067 17.050067 0 0 0 13.302052 27.732108h30.034117c65.934258 0 119.386466 53.450209 119.386467 119.386466s-53.450209 119.386466-119.386467 119.386467H153.7052c-65.934258 0-119.386466-53.450209-119.386466-119.386467s53.452209-119.386466 119.386466-119.386466z" fill="" p-id="6103"></path><path d="M392.442133 648.440533h34.110133v34.110133h-34.110133zM460.662399 648.440533h34.110134v34.110133h-34.110134zM528.882666 648.440533h34.110133v34.110133h-34.110133zM597.102932 648.440533H631.213066v34.110133h-34.110134zM273.091667 716.626799h68.220266c9.414037 0 17.056067-7.64003 17.056067-17.054066v-68.220267a17.060067 17.060067 0 0 0-17.056067-17.054066h-68.220266a17.060067 17.060067 0 0 0-17.054067 17.054066v68.220267c-0.002 9.412037 7.64003 17.054067 17.054067 17.054066z m17.054066-68.220266h34.110134v34.110133h-34.110134v-34.110133zM682.413266 716.626799h68.220266a17.060067 17.060067 0 0 0 17.054067-17.054066v-68.220267a17.060067 17.060067 0 0 0-17.054067-17.054066H682.413266c-9.414037 0-17.056067 7.64003-17.056067 17.054066v68.220267c0 9.412037 7.64203 17.054067 17.056067 17.054066z m17.054066-68.220266h34.110134v34.110133h-34.110134v-34.110133z" fill="" p-id="6104"></path></svg>