<?xml version="1.0" standalone="no"?><!DOCTYPE svg PUBLIC "-//W3C//DTD SVG 1.1//EN" "http://www.w3.org/Graphics/SVG/1.1/DTD/svg11.dtd"><svg t="1542930663922" class="icon" style="" viewBox="0 0 1024 1024" version="1.1" xmlns="http://www.w3.org/2000/svg" p-id="5963" xmlns:xlink="http://www.w3.org/1999/xlink" width="200" height="200"><defs><style type="text/css"></style></defs><path d="M392.534002 273.066015c-170.581997 60.039999-255.999995 267.537995-255.999995 442.811991 0 207.427996 168.105997 291.053994 375.465993 291.053994s375.465993-83.625998 375.465993-291.053994c0-175.273997-85.333998-382.771993-255.999995-442.811991H392.534002z" fill="#51ABD8" p-id="5964"></path><path d="M375.466003 870.400003a488.34599 488.34599 0 0 1-223.299996-54.475999c46.181999 134.689997 189.763996 191.009996 359.833993 191.009996 207.359996 0 375.465993-83.625998 375.465993-291.053994a592.601988 592.601988 0 0 0-26.71-173.379997C762.777995 738.696006 582.177999 870.400003 375.466003 870.400003z" fill="#1588C9" p-id="5965"></path><path d="M631.465998 187.734016l68.267998-51.199999V17.06602h-68.267998L597.333998 51.200019 563.199999 17.06602h-102.399998L426.666002 51.200019 392.534002 17.06602h-68.267998v119.467997l68.267998 51.199999z" fill="#51ABD8" p-id="5966"></path><path d="M392.534002 187.734016h238.933996v85.333999H392.534002z" fill="#1588C9" p-id="5967"></path><path d="M512 648.534007m-204.799996 0a204.799996 204.799996 0 1 0 409.599992 0 204.799996 204.799996 0 1 0-409.599992 0Z" fill="#FFC117" p-id="5968"></path><path d="M636.363998 486.092011c68.761999 89.617998 51.847999 218.009996-37.768 286.771994-73.419999 56.337999-175.513997 56.353999-248.951995 0.034 68.487999 89.889998 196.863996 107.245998 286.753995 38.757999s107.245998-196.863996 38.757999-286.753994a203.937996 203.937996 0 0 0-38.723999-38.723999l-0.068-0.086z" fill="#E97424" p-id="5969"></path><path d="M494.934 494.93401v36.556c-30.053999 7.766-51.079999 34.815999-51.199999 65.843998-0.018 27.733999 17.732 52.377999 44.049999 61.131999l37.632 12.51a30.319999 30.319999 0 0 1 20.717999 28.757999c0 18.858-15.274 34.133999-34.133999 34.134-18.858 0-34.133999-15.274-34.133999-34.134h-34.134c0.12 31.027999 21.146 58.077999 51.199999 65.843999v36.555999h34.134v-36.555999c30.053999-7.766 51.079999-34.815999 51.199999-65.843999 0.018-27.733999-17.732-52.377999-44.049999-61.131998l-37.546-12.51a30.291999 30.291999 0 0 1-20.803999-28.758c0-18.858 15.274-34.133999 34.133999-34.133999 18.858 0 34.133999 15.274 34.133999 34.133999h34.134c-0.12-31.027999-21.146-58.077999-51.199999-65.843998v-36.556h-34.134z" fill="" p-id="5970"></path><path d="M290.134004 648.534007c0 122.537998 99.327998 221.865996 221.865996 221.865996s221.865996-99.327998 221.865996-221.865996S634.537998 426.666012 512 426.666012c-122.469998 0.138-221.729996 99.395998-221.865996 221.867995z m409.599992 0c0 103.679998-84.053998 187.733996-187.733996 187.733997s-187.733996-84.053998-187.733996-187.733997S408.320002 460.800011 512 460.800011c103.627998 0.12 187.613996 84.103998 187.733996 187.733996z" fill="" p-id="5971"></path><path d="M119.466008 715.862006C119.466008 911.684002 262.536005 1024 512 1024s392.533992-112.315998 392.533992-308.137994c0-171.929997-80.401998-384.493992-255.999995-454.143991V196.266016l61.439999-46.079999a17.06 17.06 0 0 0 6.826-13.654V17.06602A17.072 17.072 0 0 0 699.733996 0.00002h-68.265998a17.026 17.026 0 0 0-12.066 5l-22.068 22.067999L575.265999 5.00002A17.026 17.026 0 0 0 563.199999 0.00002h-102.399998a17.026 17.026 0 0 0-12.066 5l-22.067999 22.067999L404.600002 5.00002a17.026 17.026 0 0 0-12.066-5h-68.265998a17.072 17.072 0 0 0-17.066 17.066v119.465997a17.06 17.06 0 0 0 6.826 13.654l61.439999 46.079999v65.449999c-175.599997 69.649999-256.001995 282.215994-256.001995 454.145991zM614.399998 256.000015H409.600002v-51.199999h204.799996V256.000015z m255.999995 459.861991c0 247.313995-250.641995 274.005995-358.399993 274.005995S153.600007 963.174001 153.600007 715.862006c0-168.311997 83.063998-367.923993 241.901995-425.727992h232.993996C787.335995 347.938013 870.399993 547.550009 870.399993 715.862006zM341.334003 34.134019h44.133999L414.600002 63.266019c6.656 6.656 17.476 6.656 24.131999 0l29.132-29.132h88.267998l29.132 29.132c6.656 6.656 17.476 6.656 24.131999 0l29.132-29.132h44.133999V128.000017l-56.883999 42.666H398.216002L341.334003 128.000017V34.134019z" fill="" p-id="5972"></path></svg>