<?xml version="1.0" standalone="no"?><!DOCTYPE svg PUBLIC "-//W3C//DTD SVG 1.1//EN" "http://www.w3.org/Graphics/SVG/1.1/DTD/svg11.dtd"><svg t="1542930020774" class="icon" style="" viewBox="0 0 1024 1024" version="1.1" xmlns="http://www.w3.org/2000/svg" p-id="5695" xmlns:xlink="http://www.w3.org/1999/xlink" width="200" height="200"><defs><style type="text/css"></style></defs><path d="M758.804072 299.813658v-106.079172h247.516066v760.228061H51.615597V299.813658z" fill="#F5F1EF" p-id="5696"></path><path d="M332.923399 422.090702L67.647472 687.36863 17.643862 637.361021l265.275928-265.277928z" fill="#DEDAD8" p-id="5697"></path><path d="M117.661081 637.357021l-50.00361 50.003609-50.005609-50.003609L67.659471 587.355411z" fill="#51ABD8" p-id="5698"></path><path d="M405.228834 299.813658m-229.836204 0a229.836204 229.836204 0 1 0 459.672409 0 229.836204 229.836204 0 1 0-459.672409 0Z" fill="#51ABD8" p-id="5699"></path><path d="M405.228834 299.813658m-159.116757 0a159.116757 159.116757 0 1 0 318.233514 0 159.116757 159.116757 0 1 0-318.233514 0Z" fill="#FFC117" p-id="5700"></path><path d="M863.98125 193.734486c0.493996 8.839931 0.919993 17.679862 0.919993 26.519793 0 338.991352-358.155202 616.739182-813.267646 643.064976v90.643292h954.704541V193.734486h-142.356888z" fill="#DEDAD8" p-id="5701"></path><path d="M917.922829 246.774072h35.359723v35.359724h-35.359723zM387.548972 282.133796h35.359724v35.359724h-35.359724zM316.829525 282.133796h35.359724v35.359724h-35.359724zM458.26642 282.133796h35.359724v35.359724h-35.359724z" fill="" p-id="5702"></path><path d="M405.228834 476.610276c97.645237 0 176.796619-79.151382 176.796619-176.796618s-79.151382-176.796619-176.796619-176.796619-176.796619 79.151382-176.796619 176.796619c0.087999 97.609237 79.185381 176.69062 176.796619 176.796618z m0-318.235513c78.10939 0 141.436895 63.329505 141.436895 141.436895s-63.329505 141.436895-141.436895 141.436895-141.436895-63.329505-141.436895-141.436895c0.085999-78.07139 63.345505-141.346896 141.436895-141.436895z" fill="" p-id="5703"></path><path d="M51.615597 971.642409h954.704541c9.759924 0 17.679862-7.919938 17.679862-17.679862V193.734486c0-9.759924-7.919938-17.679862-17.679862-17.679861H758.804072c-9.759924 0-17.679862 7.919938-17.679862 17.679861v88.39931h-89.265303c-9.635925-136.204936-127.913001-238.800134-264.117936-229.14621-122.751041 8.697932-220.430278 106.379169-229.14621 229.14621h-106.979164c-9.759924 0-17.679862 7.919938-17.679862 17.679862v296.277685L5.17196 624.855118c-6.895946 6.895946-6.895946 18.103859 0 24.999805l28.765775 28.765775v275.343849a17.671862 17.671862 0 0 0 17.677862 17.677862z m191.082507-484.318216L117.685081 612.355216l-25.017805-24.999805 125.031023-125.031023 24.999805 24.999805zM67.669471 612.355216l24.999805 24.999805-24.999805 24.999804-24.999804-24.999804 24.999804-24.999805z m691.134601-294.861696c9.759924 0 17.679862-7.919938 17.679862-17.679862v-88.39931h212.156342v724.868337H69.295459V704.678495a17.499863 17.499863 0 0 0 10.873915-4.861962l191.666502-191.630503c114.847103 73.725424 267.741908 40.397684 341.465333-74.467418a247.206069 247.206069 0 0 0 38.559698-116.227092h106.943165zM255.216006 149.80083c82.847353-82.847353 217.178303-82.847353 300.041656 0.018s82.847353 217.178303-0.018 300.041655-217.196303 82.829353-300.043656-0.017999a212.144343 212.144343 0 0 1-62.127514-150.030828 211.516348 211.516348 0 0 1 62.147514-150.010828z m-185.920547 167.69269h89.265302a244.874087 244.874087 0 0 0 38.259701 115.713096l-127.523003 127.523003c-0.002 0.002-0.002-243.2361-0.002-243.236099z" fill="" p-id="5704"></path><path d="M104.655182 865.565238h318.235514v35.359724H104.655182zM104.655182 794.84579h159.116757v35.359724H104.655182z" fill="" p-id="5705"></path></svg>