<?xml version="1.0" standalone="no"?><!DOCTYPE svg PUBLIC "-//W3C//DTD SVG 1.1//EN" "http://www.w3.org/Graphics/SVG/1.1/DTD/svg11.dtd"><svg t="1542930679649" class="icon" style="" viewBox="0 0 1024 1024" version="1.1" xmlns="http://www.w3.org/2000/svg" p-id="6228" xmlns:xlink="http://www.w3.org/1999/xlink" width="200" height="200"><defs><style type="text/css"></style></defs><path d="M631.459133 1023.986H392.668865a17.053734 17.053734 0 0 1-16.715739-13.645787l-34.113467-170.565334a17.073733 17.073733 0 0 1 13.303792-20.125686 17.641724 17.641724 0 0 1 3.411947-0.341995h307.015202a17.061733 17.061733 0 0 1 16.713739 20.467681l-34.113467 170.565334a17.065733 17.065733 0 0 1-16.711739 13.645787z" fill="#F5F1EF" p-id="6229"></path><path d="M358.555398 819.309198a17.061733 17.061733 0 0 0-16.713739 20.46768l34.113467 170.565335a17.055734 17.055734 0 0 0 16.715739 13.645787h71.63688l-40.93536-204.676802h-64.816987zM491.595319 819.309198l40.93536 204.676802h68.226934l-40.93536-204.676802z" fill="#51ABD8" p-id="6230"></path><path d="M455.077889 977.830721l9.227856 46.155279h68.224934l-13.269792-66.366963a437.521164 437.521164 0 0 1-64.182998 20.211684zM581.227918 926.287527l19.529695 97.698473h30.70152a17.053734 17.053734 0 0 0 16.715739-13.645787l34.113467-170.565334a17.319729 17.319729 0 0 0-0.153997-7.009891 347.140576 347.140576 0 0 1-100.906424 93.522539z" fill="#DEDAD8" p-id="6231"></path><path d="M371.757191 989.344541l4.195935 20.995672a17.055734 17.055734 0 0 0 16.715739 13.645787h71.63688l-9.227856-46.155279a462.10078 462.10078 0 0 1-83.320698 11.51382zM519.260887 957.619037l13.269792 66.366963h68.224934l-19.529695-97.698473a408.173622 408.173622 0 0 1-61.965031 31.33151z" fill="#1588C9" p-id="6232"></path><path d="M512.046999 307.701192m-289.959469 0a289.959469 289.959469 0 1 0 579.918939 0 289.959469 289.959469 0 1 0-579.918939 0Z" fill="#51ABD8" p-id="6233"></path><path d="M688.154248 77.626787c97.426478 126.848018 73.58085 308.653177-53.267168 406.079655-104.026375 79.908751-248.786113 79.908751-352.812487 0 97.118483 127.156013 278.923642 151.495633 406.079655 54.359151s151.495633-278.923642 54.35915-406.079655a289.801472 289.801472 0 0 0-54.35915-54.359151z" fill="#1588C9" p-id="6234"></path><path d="M512.046999 307.701192m-153.507601 0a153.507601 153.507601 0 1 0 307.015203 0 153.507601 153.507601 0 1 0-307.015203 0Z" fill="#FFC117" p-id="6235"></path><path d="M580.289933 768.139998c0 37.677411-30.547523 68.224934-68.224934 68.224934s-68.224934-30.547523-68.224934-68.224934c0-51.1692 68.224934-102.338401 68.224934-102.338401s68.224934 51.1692 68.224934 102.338401z" fill="#FFC117" p-id="6236"></path><path d="M605.293542 185.849096c51.407197 67.286949 38.531398 163.503445-28.75755 214.910642-54.955141 41.975344-131.19795 41.975344-186.153092 0 51.339198 67.372947 147.571694 80.370744 214.944642 29.029547s80.370744-147.571694 29.029546-214.944642a153.509601 153.509601 0 0 0-28.979547-28.995547h-0.083999z" fill="#E97424" p-id="6237"></path><path d="M495.007266 390.4239v19.529694h34.113466v-19.529694c25.5856-7.965876 39.861377-35.153451 31.913502-60.721052a48.559241 48.559241 0 0 0-24.715614-29.029546l-33.243481-16.62974a14.567772 14.567772 0 0 1 6.497899-27.595569h4.979922a14.599772 14.599772 0 0 1 14.565773 14.565772v2.489962h34.113466v-2.489962a48.589241 48.589241 0 0 0-34.113466-46.205278v-19.529694h-34.113467v19.529694c-25.5856 7.965876-39.861377 35.153451-31.913502 60.721052a48.559241 48.559241 0 0 0 24.715614 29.029546l33.243481 16.62974a14.567772 14.567772 0 0 1-6.497899 27.595569h-4.979922a14.599772 14.599772 0 0 1-14.565772-14.565772v-2.489962h-34.113467v2.489962a48.62324 48.62324 0 0 0 34.113467 46.205278z" fill="" p-id="6238"></path><path d="M512.062999 478.180528c94.202528 0 170.565335-76.360807 170.565335-170.565334s-76.360807-170.565335-170.565335-170.565335-170.565335 76.360807-170.565335 170.565335c0.103998 94.152529 76.414806 170.445337 170.565335 170.565334z m0-307.017202c75.354823 0 136.451868 61.097045 136.451868 136.451868s-61.097045 136.451868-136.451868 136.451867-136.451868-61.097045-136.451868-136.451867c0.085999-75.338823 61.131045-136.383869 136.451868-136.451868z" fill="" p-id="6239"></path><path d="M341.857658 839.776878l34.113467 170.461337a17.043734 17.043734 0 0 0 16.69774 13.747785h238.790268a17.053734 17.053734 0 0 0 16.715739-13.645787l34.113467-170.461336 70.272902-342.084655c105.358354-132.851924 83.048702-325.964907-49.805222-431.323261S376.789113-16.593741 271.430759 116.276183c-88.608615 111.736254-88.608615 269.781785 0 381.518039l70.426899 341.982656z m37.523414 13.643787h33.431478l27.289573 136.451868h-33.465477l-27.255574-136.451868z m81.512727-85.280667c0-29.131545 31.025515-62.597022 51.1692-80.302745 20.143685 17.703723 51.1692 51.1692 51.1692 80.302745 0 28.263558-22.907642 51.1692-51.1692 51.1692s-51.1692-22.923642-51.1692-51.1692z m54.923141 85.280667h33.431478l27.289574 136.451868h-33.431478l-27.289574-136.451868z m-34.795456 0l27.289574 136.451868H474.87958l-27.289574-136.451868h33.431478z m136.451868 136.451868h-6.139904l-27.289574-136.451868h60.721052l-27.291574 136.451868z m-37.627412-170.563335a84.406681 84.406681 0 0 0 17.499726-51.1692c0-57.991094-67.354948-110.218278-75.048827-115.984188a17.039734 17.039734 0 0 0-20.46768 0c-7.69188 5.76591-75.048827 57.991094-75.048827 115.984188a84.406681 84.406681 0 0 0 17.499726 51.1692h-71.824878l-56.747113-275.955688c113.646224 95.038515 279.05964 95.038515 392.707864 0l-56.747113 275.955688h-71.822878zM512.062999 34.711458c150.727645 0 272.903736 122.176091 272.903736 272.903736s-122.176091 272.903736-272.903736 272.903735-272.901736-122.176091-272.901736-272.903735c0.169997-150.659646 122.26009-272.731739 272.901736-272.903736z" fill="" p-id="6240"></path><path d="M494.989266 750.998266h34.113467v34.113467h-34.113467z" fill="" p-id="6241"></path></svg>