<?xml version="1.0" standalone="no"?><!DOCTYPE svg PUBLIC "-//W3C//DTD SVG 1.1//EN" "http://www.w3.org/Graphics/SVG/1.1/DTD/svg11.dtd"><svg t="1542929903240" class="icon" style="" viewBox="0 0 1024 1024" version="1.1" xmlns="http://www.w3.org/2000/svg" p-id="6868" xmlns:xlink="http://www.w3.org/1999/xlink" width="200" height="200"><defs><style type="text/css"></style></defs><path d="M512.066 546.354429m-460.553586 0a460.553586 460.553586 0 1 0 921.107172 0 460.553586 460.553586 0 1 0-921.107172 0Z" fill="#51ABD8" p-id="6869"></path><path d="M791.859749 181.356757c155.223861 201.279819 117.697894 489.55156-83.581925 644.775421-165.457851 127.931885-395.735644 127.931885-561.193496 0 155.223861 201.279819 443.495602 240.511784 644.775421 85.287923s240.511784-443.495602 85.287923-644.775421a404.349637 404.349637 0 0 0-85.287923-85.287923z" fill="#1588C9" p-id="6870"></path><path d="M699.749831 205.238736c0 153.517862-170.575847 307.035724-170.575846 307.035724s-170.575847-153.517862-170.575847-307.035724c0-93.815916 76.759931-170.575847 170.575847-170.575847s170.575847 76.757931 170.575846 170.575847z" fill="#1588C9" p-id="6871"></path><path d="M682.691847 188.180751c0 153.517862-170.575847 307.035724-170.575847 307.035724S341.540153 341.698613 341.540153 188.180751c0-93.815916 76.759931-170.575847 170.575847-170.575847s170.575847 76.759931 170.575847 170.575847z" fill="#FFC117" p-id="6872"></path><path d="M385.890113 336.580618c34.115969 57.995948 76.759931 112.579899 126.225887 158.635857 0 0 170.575847-153.517862 170.575847-307.035724 0-15.351986-1.705998-30.703972-6.823994-46.055959-63.111943 104.051907-168.867848 175.693842-289.97774 194.455826z" fill="#E97424" p-id="6873"></path><path d="M495.058015 322.93463v18.763983h34.11597v-18.763983c25.585977-8.527992 39.231965-35.819968 32.40997-61.407945-3.411997-11.939989-13.645988-23.879979-23.879978-28.997974l-32.409971-17.057985c-6.823994-3.411997-10.233991-11.939989-6.823994-18.763983 1.705998-5.117995 6.823994-8.527992 13.645988-8.527992h5.117995a15.289986 15.289986 0 0 1 15.351987 15.351986v1.705999h34.115969v-1.705999c0-20.469982-13.645988-39.231965-34.115969-46.055958V137.006797h-34.11597v18.763983c-25.585977 8.527992-39.231965 35.819968-32.409971 61.407945 3.411997 11.939989 13.645988 23.879979 23.879979 28.997974l32.409971 17.057985c6.821994 3.411997 10.233991 11.939989 6.821994 18.763983-1.705998 5.117995-6.821994 8.527992-13.645988 8.527992h-5.117996a15.287986 15.287986 0 0 1-15.351986-15.351986v-1.705999H460.940046v1.705999c0.004 22.17398 13.649988 40.937963 34.117969 47.759957zM495.008015 375.778582h34.11597v34.11597h-34.11597zM495.008015 68.742858h34.11597v34.11597h-34.11597z" fill="" p-id="6874"></path><path d="M512.116 1024c264.391762 0 477.611571-213.219808 477.611571-477.611571 0-199.573821-124.519888-378.67766-313.859718-448.613597-49.465956-90.405919-163.751853-124.519888-254.157772-75.053932-32.409971 17.057985-57.995948 42.643962-75.053932 75.053932C99.324371 189.886749-26.901516 462.806504 63.502403 710.142282 133.43834 899.480112 312.542179 1024 512.116 1024zM138.556336 785.194215h151.811863c25.585977 81.875926 61.407945 148.399867 107.461904 189.339829-107.461903-28.997974-199.571821-95.521914-259.273767-189.339829z m213.219808-477.611571h-25.585977c3.411997-11.939989 8.527992-23.879979 13.645988-35.819968 3.409997 11.939989 6.821994 23.879979 11.939989 35.819968z m17.055985 34.115969c34.115969 59.701946 76.759931 114.285897 126.225886 160.341856v27.291975H290.368199c1.705998-63.113943 8.527992-126.225887 25.585977-187.633831h52.877953z m317.271715-69.935937c5.117995 11.939989 8.527992 23.879979 13.645987 35.819968h-25.585977c3.409997-11.939989 6.821994-23.879979 11.93999-35.819968zM655.399871 341.698613h52.877953c15.351986 61.407945 23.879979 124.519888 25.585977 187.633831H529.173985V502.040469c49.465956-46.055959 92.109917-100.63991 126.225886-160.341856z m300.21373 187.633831H767.97977c-1.705998-63.113943-8.527992-126.225887-23.879979-187.633831h160.341856c30.701972 57.995948 47.759957 122.81389 51.171954 187.633831zM495.058015 785.194215V988.180032c-69.935937-11.939989-131.343882-90.405919-168.869848-202.985817h168.869848z m-179.103839-34.11397c-15.351986-61.407945-23.879979-124.519888-25.585977-187.633831h204.689816v187.633831h-179.103839z m213.219809 237.099787V785.194215h168.869848c-37.525966 112.579899-98.933911 192.751827-168.869848 202.985817z m0-237.099787v-187.633831h204.689816c-1.705998 63.111943-10.233991 126.225887-25.585977 187.633831h-179.103839z m238.805785-187.633831h187.633831c-1.705998 64.817942-18.763983 129.637884-49.465955 187.633831H744.099791c15.351986-61.407945 22.17398-124.519888 23.879979-187.633831z m-511.72754-34.11397H68.620398c1.705998-64.817942 18.763983-129.637884 49.465956-187.633831h162.045854c-13.643988 61.407945-22.17398 124.519888-23.879978 187.633831z m0 34.11397c0 63.111943 8.527992 126.225887 23.879978 187.633831H118.086354c-28.997974-57.995948-46.055959-122.81389-49.465956-187.633831h187.631832z m370.149667 411.08763c46.055959-40.937963 83.581925-107.461903 107.461904-189.339829h150.105865c-57.993948 93.817916-150.105865 160.341856-257.567769 189.339829z m259.275767-666.9514h-151.811863c-10.233991-30.703972-22.17398-61.407945-35.819968-90.405919 1.705998-10.233991 1.705998-18.763983 1.705998-28.997974 0-15.351986-1.705998-30.703972-6.823994-46.055959 80.169928 35.823968 146.693868 92.113917 192.749827 165.459852zM512.116 34.662889c85.287923 0 153.517862 68.229939 153.517862 153.517862 0 121.107891-115.991896 245.627779-153.517862 283.155746-37.525966-37.525966-153.517862-162.045854-153.517862-283.155746 0-85.287923 68.229939-153.517862 153.517862-153.517862z m-180.809838 107.461903c-5.117995 15.351986-6.823994 30.703972-6.823994 46.055959 0 10.233991 0 18.763983 1.705999 28.997974-15.351986 28.997974-27.291975 59.701946-35.819968 90.405919H138.556336c46.055959-73.347934 112.579899-129.637884 192.749826-165.459852z" fill="" p-id="6875"></path></svg>