<?xml version="1.0" standalone="no"?><!DOCTYPE svg PUBLIC "-//W3C//DTD SVG 1.1//EN" "http://www.w3.org/Graphics/SVG/1.1/DTD/svg11.dtd"><svg t="1542917027271" class="icon" style="" viewBox="0 0 1026 1024" version="1.1" xmlns="http://www.w3.org/2000/svg" p-id="1105" data-spm-anchor-id="a313x.7781069.0.i0" xmlns:xlink="http://www.w3.org/1999/xlink" width="200.390625" height="200"><defs><style type="text/css"></style></defs><path d="M513.955351 1023.682639c-76.07954 0-152.343354-17.229613-220.545184-49.846098a26.714601 26.714601 0 0 1-13.769357-15.340805 26.888638 26.888638 0 0 1 1.085169-20.607968 27.083149 27.083149 0 0 1 24.303684-15.32033c4.03867 0 7.95961 0.900895 11.645088 2.64126 60.95884 29.176706 128.971277 44.573817 196.691947 44.573816 5.507743 0 11.005249-0.102374 16.52323-0.302004 122.224804-4.233182 235.486728-55.855476 318.973056-145.351182 83.39931-89.424044 126.985214-206.023374 122.726439-328.284009-3.624054-103.930497-40.965119-200.669193-108.004999-279.743185a27.057556 27.057556 0 0 1 3.15825-38.006498 27.037081 27.037081 0 0 1 38.00138 3.101945c74.973897 88.533387 116.742654 196.671472 120.750612 312.748692 4.765529 136.628883-43.949333 266.951502-137.171467 366.96106-93.257966 100.004439-219.854156 157.702654-356.498395 162.457946-5.983784 0.194511-11.936856 0.317361-17.869453 0.31736m-17.710772-159.422544a26.991012 26.991012 0 0 1-26.955181-26.970537 26.996131 26.996131 0 0 1 26.955181-26.965419h86.137825v-73.904084a26.909113 26.909113 0 0 1 14.654897-23.996561c62.729918-32.043189 101.703854-95.668883 101.703854-166.087118 0-102.773667-83.609178-186.3982-186.377726-186.398201-102.783904 0-186.408438 83.624534-186.408438 186.398201 0 70.418235 38.973937 134.049048 101.708973 166.087118a26.863044 26.863044 0 0 1 14.670252 23.996561v100.864384c0 14.869883-12.08018 26.970537-26.955181 26.970537s-26.980775-12.095536-26.980775-26.970537v-84.996351c-71.80029-43.186643-116.363869-121.95863-116.363869-205.931237 0-132.51855 107.805369-240.3188 240.329038-240.318801 132.508313 0 240.323919 107.805369 240.323919 240.318801 0 83.972607-44.548223 162.724119-116.389462 205.931237v84.996351a27.011487 27.011487 0 0 1-26.965419 26.970537H496.244579z m-342.606189-0.885539a27.031962 27.031962 0 0 1-19.988602-8.886098C53.178385 765.2794 6.557081 649.954631 2.385324 529.736366-7.447738 247.653927 213.99834 10.155541 496.060305 0.312242c5.896766-0.204749 11.79865-0.307123 17.685179-0.307123 88.656236 0 175.981605 22.967698 252.521829 66.410277 12.899175 7.370957 17.454836 23.868593 10.129948 36.778006a27.006368 27.006368 0 0 1-23.489808 13.615796 27.195761 27.195761 0 0 1-13.237011-3.455137c-68.503834-38.902274-146.528488-59.448818-225.602479-59.448817-5.374656 0-10.733957 0.092137-16.108613 0.281529-122.260635 4.274131-235.517441 55.896426-318.916751 145.356301C95.592102 289.054136 52.00108 405.658585 56.275211 527.837321c3.762259 107.595501 45.449118 210.747953 117.367138 290.512971a26.729958 26.729958 0 0 1 6.910273 19.430663 26.781145 26.781145 0 0 1-8.855386 18.632142 27.07803 27.07803 0 0 1-18.058846 6.961459M706.291267 340.5587a26.873282 26.873282 0 0 1-19.046758-7.867473 26.776026 26.776026 0 0 1-7.898186-19.082589c0-7.207158 2.789703-13.968988 7.887948-19.051877l38.774307-38.815256a26.827213 26.827213 0 0 1 19.072352-7.877711c7.222514 0 13.989463 2.79994 19.082589 7.877711 5.098245 5.093127 7.882829 11.865194 7.882829 19.072352s-2.784584 13.984344-7.882829 19.062114l-38.815256 38.7999a26.735076 26.735076 0 0 1-19.056996 7.882829m-387.891507 0a26.837451 26.837451 0 0 1-19.067233-7.867473l-38.815256-38.815256a27.006368 27.006368 0 0 1 0-38.134466 26.811857 26.811857 0 0 1 19.056995-7.877711c7.222514 0 13.984344 2.79994 19.072352 7.877711l38.7999 38.815256a27.016606 27.016606 0 0 1 0 38.11911 26.837451 26.837451 0 0 1-19.046758 7.882829m193.953432-77.594681a26.996131 26.996131 0 0 1-26.970538-26.9603V158.419275a26.996131 26.996131 0 0 1 26.970538-26.9603 26.985894 26.985894 0 0 1 26.955181 26.9603v77.584444a26.770907 26.770907 0 0 1-7.898186 19.067233 26.76067 26.76067 0 0 1-19.056995 7.893067" fill="#1296db" p-id="1106"></path></svg>