<?xml version="1.0" encoding="utf-8"?>
<!-- Generator: Adobe Illustrator 22.0.1, SVG Export Plug-In . SVG Version: 6.00 Build 0)  -->
<svg version="1.1" id="Layer_1" xmlns="http://www.w3.org/2000/svg" xmlns:xlink="http://www.w3.org/1999/xlink" x="0px" y="0px"
	 viewBox="0 0 800.7 200" style="enable-background:new 0 0 800.7 200;" xml:space="preserve">
<style type="text/css">
	.st0{fill:#1296DB;}
	.st1{font-family:'ComicSansMS-Bold';}
	.st2{font-size:81px;}
</style>
<path class="st0" d="M122.8,200c-14.9,0-29.8-3.4-43.1-9.7c-1.3-0.6-2.2-1.7-2.7-3c-0.5-1.3-0.4-2.8,0.2-4c0.9-1.8,2.7-3,4.7-3
	c0.8,0,1.6,0.2,2.3,0.5c11.9,5.7,25.2,8.7,38.4,8.7c1.1,0,2.1,0,3.2-0.1c23.9-0.8,46-10.9,62.3-28.4c16.3-17.5,24.8-40.2,24-64.1
	c-0.7-20.3-8-39.2-21.1-54.6c-1.9-2.2-1.6-5.5,0.6-7.4c2.2-1.9,5.5-1.6,7.4,0.6c14.6,17.3,22.8,38.4,23.6,61.1
	c0.9,26.7-8.6,52.1-26.8,71.7c-18.2,19.5-42.9,30.8-69.6,31.7C125.1,199.9,124,200,122.8,200 M119.4,168.8c-2.9,0-5.3-2.4-5.3-5.3
	c0-2.9,2.4-5.3,5.3-5.3h16.8v-14.4c0-2,1.1-3.8,2.9-4.7c12.3-6.3,19.9-18.7,19.9-32.4c0-20.1-16.3-36.4-36.4-36.4
	c-20.1,0-36.4,16.3-36.4,36.4c0,13.8,7.6,26.2,19.9,32.4c1.8,0.9,2.9,2.7,2.9,4.7v19.7c0,2.9-2.4,5.3-5.3,5.3s-5.3-2.4-5.3-5.3V147
	c-14-8.4-22.7-23.8-22.7-40.2c0-25.9,21.1-46.9,46.9-46.9c25.9,0,46.9,21.1,46.9,46.9c0,16.4-8.7,31.8-22.7,40.2v16.6
	c0,2.9-2.4,5.3-5.3,5.3L119.4,168.8L119.4,168.8z M52.4,168.7c-1.5,0-2.9-0.6-3.9-1.7c-15.7-17.4-24.8-39.9-25.6-63.4
	C21,48.4,64.2,2,119.3,0.1c1.2,0,2.3-0.1,3.5-0.1c17.3,0,34.4,4.5,49.3,13c2.5,1.4,3.4,4.7,2,7.2c-0.9,1.6-2.7,2.7-4.6,2.7
	c-0.9,0-1.8-0.2-2.6-0.7c-13.4-7.6-28.6-11.6-44.1-11.6c-1,0-2.1,0-3.1,0.1c-23.9,0.8-46,10.9-62.3,28.4
	c-16.3,17.5-24.8,40.3-24,64.1c0.7,21,8.9,41.2,22.9,56.7c0.9,1,1.4,2.4,1.3,3.8c-0.1,1.4-0.7,2.7-1.7,3.6
	C55,168.2,53.8,168.7,52.4,168.7 M160.4,66.5c-1.4,0-2.7-0.6-3.7-1.5c-1-1-1.5-2.3-1.5-3.7c0-1.4,0.5-2.7,1.5-3.7l7.6-7.6
	c1-1,2.3-1.5,3.7-1.5c1.4,0,2.7,0.5,3.7,1.5c1,1,1.5,2.3,1.5,3.7c0,1.4-0.5,2.7-1.5,3.7l-7.6,7.6C163.1,66,161.8,66.6,160.4,66.5
	 M84.6,66.5c-1.4,0-2.7-0.5-3.7-1.5l-7.6-7.6c-2.1-2.1-2.1-5.4,0-7.4c1-1,2.3-1.5,3.7-1.5c1.4,0,2.7,0.5,3.7,1.5l7.6,7.6
	c2,2.1,2,5.4,0,7.4C87.4,66,86,66.5,84.6,66.5 M122.5,51.4c-2.9,0-5.3-2.4-5.3-5.3V31c0-2.9,2.4-5.3,5.3-5.3c2.9,0,5.3,2.4,5.3,5.3
	v15.2c0,1.4-0.6,2.7-1.5,3.7C125.2,50.8,123.9,51.4,122.5,51.4"/>
<text transform="matrix(1 0 0 1 243.5164 126.4155)" class="st0 st1 st2">ThoughtShare</text>
</svg>
